<svg id="visual" viewBox="0 0 900 600" width="900" height="600" xmlns="http://www.w3.org/2000/svg" xmlns:xlink="http://www.w3.org/1999/xlink" version="1.1"><rect x="0" y="0" width="900" height="600" fill="#a499eb"></rect><g transform="translate(445.678696072777 240.13559793736115)"><path d="M32.1 -50.5C36.6 -53.1 31.7 -34.3 27.6 -22.3C23.6 -10.3 20.3 -5.2 59.1 22.4C97.9 50 178.9 100 185.7 116.7C192.5 133.5 125.3 117 82 113C38.7 109 19.3 117.5 -14.1 141.9C-47.5 166.3 -95 206.5 -130.2 205.9C-165.4 205.2 -188.4 163.6 -172.3 122.5C-156.2 81.3 -101.1 40.7 -96.6 2.6C-92.2 -35.5 -138.3 -71 -137.1 -82.1C-135.8 -93.2 -87.2 -80 -56.4 -62.2C-25.7 -44.5 -12.8 -22.2 0.5 -23.1C13.8 -24 27.7 -47.9 32.1 -50.5" fill="#8678de"></path></g></svg>