<svg id="visual" viewBox="0 0 900 600" width="900" height="600" xmlns="http://www.w3.org/2000/svg" xmlns:xlink="http://www.w3.org/1999/xlink" version="1.1"><g transform="translate(427.09515475539587 259.45348373106816)"><path d="M109.8 -150.4C144.3 -170.3 175.7 -144.9 203.7 -112.3C231.7 -79.7 256.3 -39.8 224.4 -18.4C192.5 3 104.1 6 76.1 38.8C48.2 71.5 80.9 134.1 78.3 170.7C75.7 207.4 37.8 218.2 -6.1 228.7C-50 239.3 -100 249.5 -101.9 212.5C-103.8 175.4 -57.5 90.9 -77.8 47.6C-98.2 4.3 -185.1 2.2 -193 -4.6C-201 -11.3 -129.9 -22.7 -104.3 -56.9C-78.8 -91.1 -98.6 -148.2 -88.8 -142.5C-79 -136.8 -39.5 -68.4 -0.9 -66.8C37.7 -65.2 75.3 -130.5 109.8 -150.4" fill="#8678de"></path></g></svg>