<svg id="visual" viewBox="0 0 900 600" width="900" height="600" xmlns="http://www.w3.org/2000/svg" xmlns:xlink="http://www.w3.org/1999/xlink" version="1.1"><g transform="translate(443.0732244127118 300.15619429783874)"><path d="M95.2 -191.4C108.7 -157.1 95 -102 114.4 -66.6C133.8 -31.3 186.4 -15.6 221.8 20.4C257.2 56.5 275.4 113 264.4 162.9C253.4 212.9 213.2 256.3 164.3 264.7C115.3 273.1 57.7 246.5 16.2 218.5C-25.3 190.5 -50.7 161.1 -104.8 155.7C-158.9 150.3 -241.8 168.9 -252.5 146.9C-263.2 125 -201.6 62.5 -184 10.2C-166.4 -42.2 -192.7 -84.3 -197.1 -132.3C-201.4 -180.2 -183.7 -233.8 -147.2 -254.9C-110.7 -276 -55.3 -264.5 -7.3 -251.9C40.8 -239.4 81.7 -225.8 95.2 -191.4" fill="#8678de"></path></g></svg>