<svg id="visual" viewBox="0 0 900 600" width="900" height="600" xmlns="http://www.w3.org/2000/svg" xmlns:xlink="http://www.w3.org/1999/xlink" version="1.1"><rect x="0" y="0" width="900" height="600" fill="#a499eb"></rect><g transform="translate(411.56272661781225 325.3135577451004)"><path d="M134.5 -251.6C168.3 -213.4 185.7 -165.3 223 -121.7C260.3 -78.1 317.7 -39.1 325.7 4.6C333.7 48.3 292.4 96.7 256.6 142.9C220.8 189 190.4 233.1 148.5 254.4C106.7 275.8 53.3 274.4 6.2 263.7C-41 253 -82 233 -124.9 212.3C-167.7 191.5 -212.5 170 -233 134.5C-253.5 99 -249.7 49.5 -249.3 0.3C-248.9 -49 -251.7 -98 -238 -145.2C-224.2 -192.4 -193.9 -237.8 -151.4 -271C-109 -304.1 -54.5 -325.1 -2.1 -321.5C50.3 -317.8 100.7 -289.7 134.5 -251.6" fill="#8678de"></path></g></svg>